<svg id="bag-black" xmlns="http://www.w3.org/2000/svg" width="21" height="24" viewBox="0 0 21 24">
  <g id="Group_12" data-name="Group 12" transform="translate(0 6.089)">
    <g id="Group_11" data-name="Group 11">
      <path id="Path_5" data-name="Path 5" d="M54.661,144.768,53.41,128.5a.752.752,0,0,0-.754-.69H35.707a.752.752,0,0,0-.754.69l-1.262,16.418a.741.741,0,0,0,.2.563.76.76,0,0,0,.554.239H53.933a.752.752,0,0,0,.756-.747A.73.73,0,0,0,54.661,144.768Zm-19.4-.542L36.408,129.3H51.955L53.1,144.226Z" transform="translate(-33.689 -127.808)"/>
    </g>
  </g>
  <g id="Group_14" data-name="Group 14" transform="translate(4.394)">
    <g id="Group_13" data-name="Group 13">
      <path id="Path_6" data-name="Path 6" d="M133.833,0a6.106,6.106,0,0,0-6.1,6.1V9.139a.762.762,0,1,0,1.525,0V6.1a4.574,4.574,0,1,1,9.148,0V9.139a.762.762,0,0,0,1.525,0V6.1A6.106,6.106,0,0,0,133.833,0Z" transform="translate(-127.735)"/>
    </g>
  </g>
</svg>
