<svg id="pin-black" xmlns="http://www.w3.org/2000/svg" width="16" height="24" viewBox="0 0 16 24">
  <g id="Group_7" data-name="Group 7" transform="translate(0)">
    <g id="Group_6" data-name="Group 6">
      <path id="Path_2" data-name="Path 2" d="M84,0a8.237,8.237,0,0,0-8,8.438,8.765,8.765,0,0,0,1.194,4.437l6.35,10.793a.66.66,0,0,0,.566.332h.005a.661.661,0,0,0,.567-.342l6.189-10.9A8.779,8.779,0,0,0,92,8.438,8.237,8.237,0,0,0,84,0Zm5.727,12.038L84.1,21.946l-5.774-9.813a7.31,7.31,0,0,1-1-3.7,6.683,6.683,0,1,1,13.347,0A7.318,7.318,0,0,1,89.727,12.038Z" transform="translate(-76)"/>
    </g>
  </g>
  <g id="Group_9" data-name="Group 9" transform="translate(3.783 4.22)">
    <g id="Group_8" data-name="Group 8">
      <path id="Path_3" data-name="Path 3" d="M170.217,90a4.217,4.217,0,1,0,4.217,4.217A4.222,4.222,0,0,0,170.217,90Zm0,7.038a2.821,2.821,0,1,1,2.816-2.821A2.823,2.823,0,0,1,170.217,97.038Z" transform="translate(-166 -90)"/>
    </g>
  </g>
</svg>
