<svg id="search-black" xmlns="http://www.w3.org/2000/svg" width="24" height="23" viewBox="0 0 24 23">
  <path id="Path_1" data-name="Path 1" d="M23.707,21.367l-6.825-6.541A8.831,8.831,0,0,0,19,9.107,9.319,9.319,0,0,0,9.5,0,9.319,9.319,0,0,0,0,9.107a9.319,9.319,0,0,0,9.5,9.1,9.71,9.71,0,0,0,5.968-2.03l6.825,6.541a1.03,1.03,0,0,0,1.414,0A.929.929,0,0,0,23.707,21.367ZM9.5,16.295A7.356,7.356,0,0,1,2,9.107,7.356,7.356,0,0,1,9.5,1.92,7.356,7.356,0,0,1,17,9.107,7.356,7.356,0,0,1,9.5,16.295Z" transform="translate(0 -0.003)"/>
</svg>
